<?xml version="1.0" encoding="UTF-8" standalone="no"?>
<svg width="171px" height="59px" viewBox="0 0 171 59" version="1.1" xmlns="http://www.w3.org/2000/svg" xmlns:xlink="http://www.w3.org/1999/xlink">
    <!-- Generator: Sketch 3.8.3 (29802) - http://www.bohemiancoding.com/sketch -->
    <title>Group 2</title>
    <desc>Created with Sketch.</desc>
    <defs>
        <polygon id="path-1" points="0.000410318259 59.4961475 49.70739 59.4961475 49.70739 0.600500772 0.000410318259 0.600500772 0.000410318259 59.4961475"></polygon>
    </defs>
    <g id="Layouts" stroke="none" stroke-width="1" fill="none" fill-rule="evenodd">
        <g id="DDM_-Departmental-landing-page-4-Copy-35" transform="translate(-134.000000, 0.000000)">
            <g id="Group-2" transform="translate(134.000000, -1.000000)">
                <g id="Group-15" transform="translate(0.000000, 0.414700)">
                    <mask id="mask-2" fill="white">
                        <use xlink:href="#path-1"></use>
                    </mask>
                    <g id="Clip-14"></g>
                    <path d="M35.3780506,38.5231401 L14.3287239,38.5231401 C13.3316506,38.5231401 12.5233236,37.7137873 12.5233236,36.7167139 C12.5233236,35.717589 13.3316506,34.9082362 14.3287239,34.9082362 L35.3780506,34.9082362 C36.3761498,34.9082362 37.1834509,35.717589 37.1834509,36.7167139 C37.1834509,37.7137873 36.3761498,38.5231401 35.3780506,38.5231401 L35.3780506,38.5231401 Z M15.999745,14.5913276 L22.3976325,16.5516231 L24.8533873,10.3250435 L27.3101678,16.5516231 L33.7070295,14.5913276 L30.3731936,20.3963052 L35.8919742,24.1794395 L29.2807213,25.190874 L29.7659226,31.8688037 L24.8533873,27.324529 L19.9408519,31.8688037 L20.4260532,25.190874 L13.8148003,24.1794395 L19.3335809,20.3963052 L15.999745,14.5913276 Z M0.000410318259,0.600500772 L0.000410318259,39.3222349 C0.000410318259,42.2724231 1.49089139,45.0215555 3.96203311,46.6320546 L24.7497819,59.4965579 L45.7160191,46.6279515 C48.2045994,45.0215555 49.70739,42.2621652 49.70739,39.3006932 L49.70739,0.600500772 L0.000410318259,0.600500772 Z" id="Fill-13" fill="#FEFEFE" mask="url(#mask-2)"></path>
                </g>
                <g id="Group-5" transform="translate(68.000000, 19.000000)">
                    <g id="Group" fill="#FFFFFF">
                        <path d="M9.85099092,16.2807749 C10.4482268,16.2807749 10.9767601,16.2279495 11.4372712,16.1215945 C11.8984624,16.0152394 12.333125,15.8743718 12.7426193,15.697583 L12.7426193,12.7703539 L10.9005752,12.7703539 C10.6271255,12.7703539 10.4142156,12.6949897 10.2611654,12.5442613 C10.1067548,12.3942373 10.0305698,12.2047704 10.0305698,11.9751562 L10.0305698,9.51138154 L16.6573032,9.51138154 L16.6573032,17.6584602 C16.1797866,18.02049 15.6825435,18.3318074 15.1669344,18.5917082 C14.6513253,18.8523133 14.1003446,19.0671364 13.5167132,19.2347688 C12.9324016,19.4031056 12.3093172,19.5256605 11.6488206,19.605955 C10.9876437,19.6848409 10.2774908,19.7249881 9.51904204,19.7249881 C8.15383428,19.7249881 6.89134021,19.4756525 5.73155983,18.9762768 C4.57109922,18.4776054 3.56708993,17.7887627 2.71885173,16.9097488 C1.8699333,16.0314392 1.20467511,14.9890188 0.723077154,13.783192 C0.240798977,12.5780696 0,11.2687051 0,9.85580286 C0,8.41613581 0.229915407,7.09338888 0.690426445,5.88756208 C1.15161771,4.68243961 1.81075389,3.64283659 2.66715477,2.76804868 C3.52423587,1.89396512 4.56089588,1.21357453 5.77645455,0.728285583 C6.99201323,0.242292302 8.34973854,0 9.85099092,0 C10.6271255,0 11.3563246,0.0662077802 12.0392686,0.197919003 C12.7215324,0.330334563 13.3507388,0.511349452 13.9255273,0.741668006 C14.5016762,0.971282223 15.0281689,1.2445654 15.5056855,1.56292622 C15.9838824,1.88058269 16.4103823,2.22500402 16.7851852,2.59548585 L15.5322142,4.56974551 C15.412495,4.75569077 15.2696481,4.90148875 15.1029935,5.00713947 C14.937019,5.11349452 14.7553995,5.16631987 14.5594952,5.16631987 C14.3037313,5.16631987 14.0384443,5.07827761 13.7663551,4.90148875 C13.4248831,4.68877865 13.1024573,4.50565075 12.8004383,4.35140071 C12.497739,4.19715066 12.1882375,4.07107415 11.872614,3.97317115 C11.5569904,3.87667683 11.2243614,3.80624303 10.8747267,3.76186973 C10.5244118,3.71749643 10.1326033,3.69566195 9.6972605,3.69566195 C8.88711479,3.69566195 8.15791562,3.84357294 7.51034323,4.13939494 C6.8614104,4.43592128 6.30906924,4.85218509 5.85331976,5.39100372 C5.39689007,5.9305267 5.04521472,6.57710906 4.79761352,7.33215949 C4.55001231,8.08720992 4.4262117,8.92889394 4.4262117,9.85580286 C4.4262117,10.8799104 4.56293655,11.7899153 4.83570601,12.5844086 C5.10847547,13.3796063 5.48599929,14.0508405 5.96827747,14.5981112 C6.44987542,15.1460862 7.02194305,15.5630544 7.68243968,15.8504243 C8.34361653,16.1370899 9.06669368,16.2807749 9.85099092,16.2807749 L9.85099092,16.2807749 Z" id="Fill-1"></path>
                        <path d="M35.1406107,9.85580286 C35.1406107,8.90212909 35.0180093,8.04283662 34.7735032,7.27933414 C34.5289972,6.51512731 34.1772149,5.86854495 33.718853,5.33817837 C33.2604912,4.80851612 32.6990327,4.40211305 32.0351743,4.11896914 C31.3713159,3.8372339 30.6155065,3.69566195 29.7684426,3.69566195 C28.9130196,3.69566195 28.1509408,3.8372339 27.4822062,4.11896914 C26.8141682,4.40211305 26.2506199,4.80851612 25.7922581,5.33817837 C25.3338962,5.86854495 24.982114,6.51512731 24.7376079,7.27933414 C24.4931018,8.04283662 24.3705004,8.90212909 24.3705004,9.85580286 C24.3705004,10.8179287 24.4931018,11.6821515 24.7376079,12.445654 C24.982114,13.2098608 25.3338962,13.8564432 25.7922581,14.3868098 C26.2506199,14.916472 26.8141682,15.3200577 27.4822062,15.5982713 C28.1509408,15.8764848 28.9130196,16.0152394 29.7684426,16.0152394 C30.6155065,16.0152394 31.3713159,15.8764848 32.0351743,15.5982713 C32.6990327,15.3200577 33.2604912,14.916472 33.718853,14.3868098 C34.1772149,13.8564432 34.5289972,13.2098608 34.7735032,12.445654 C35.0180093,11.6821515 35.1406107,10.8179287 35.1406107,9.85580286 M39.6740741,9.85580286 C39.6740741,11.2510966 39.4358374,12.5491917 38.959364,13.7500881 C38.4835871,14.9509846 37.8134593,15.9962223 36.9489805,16.8836883 C36.0838051,17.77045 35.0416937,18.466336 33.8233428,18.9692334 C32.6049919,19.4728351 31.2535907,19.7249881 29.7684426,19.7249881 C28.2832945,19.7249881 26.9298035,19.4728351 25.7072731,18.9692334 C24.484046,18.466336 23.4384516,17.77045 22.5690966,16.8836883 C21.6997416,15.9962223 21.027524,14.9509846 20.5517472,13.7500881 C20.0752737,12.5491917 19.837037,11.2510966 19.837037,9.85580286 C19.837037,8.46050911 20.0752737,7.16241401 20.5517472,5.96081324 C21.027524,4.7599168 21.6997416,3.71749643 22.5690966,2.83425646 C23.4384516,1.9510165 24.484046,1.25794782 25.7072731,0.754346092 C26.9298035,0.250744359 28.2832945,0 29.7684426,0 C31.2535907,0 32.6049919,0.253561712 33.8233428,0.761389473 C35.0416937,1.26921723 36.0838051,1.96510326 36.9489805,2.84763889 C37.8134593,3.73087885 38.4835871,4.77329922 38.959364,5.97419566 C39.4358374,7.1750921 39.6740741,8.46896117 39.6740741,9.85580286" id="Fill-3"></path>
                        <path d="M40.437037,0 L43.956838,0 C44.3359253,0 44.6469007,0.0865157773 44.8883882,0.260239458 C45.1298757,0.433963139 45.3025634,0.663749043 45.4064512,0.950289298 L49.0549079,11.1037809 C49.2193396,11.5467417 49.3851472,12.0284615 49.5530189,12.5489405 C49.7215786,13.0694194 49.8791303,13.6161991 50.025674,14.1892796 C50.1460737,13.6161991 50.2864255,13.0694194 50.4460411,12.5489405 C50.6056568,12.0284615 50.7632085,11.5467417 50.9180082,11.1037809 L54.541697,0.950289298 C54.6276968,0.706660869 54.7962565,0.487948984 55.046,0.29276939 C55.2964315,0.0975897968 55.6025909,0 55.9651662,0 L59.5111111,0 L51.9534461,18.9663348 L47.994014,18.9663348 L40.437037,0 Z" id="Fill-5"></path>
                        <path d="M57.2222222,17.4486742 C57.2222222,17.1295515 57.2803088,16.8323641 57.3978651,16.557112 C57.5147298,16.2825674 57.6744679,16.0426947 57.8784626,15.8389091 C58.0824572,15.6351235 58.3231017,15.472378 58.6003961,15.3527954 C58.878382,15.2332129 59.1812622,15.1730678 59.5111111,15.1730678 C59.831279,15.1730678 60.1307016,15.2332129 60.407996,15.3527954 C60.6859819,15.472378 60.9287009,15.6351235 61.1368446,15.8389091 C61.3449883,16.0426947 61.5074924,16.2825674 61.6243572,16.557112 C61.7412219,16.8323641 61.8,17.1295515 61.8,17.4486742 C61.8,17.7677968 61.7412219,18.0678146 61.6243572,18.3473123 C61.5074924,18.6268099 61.3449883,18.8688054 61.1368446,19.072591 C60.9287009,19.2763767 60.6859819,19.4369994 60.407996,19.5516288 C60.1307016,19.6669658 59.831279,19.7249881 59.5111111,19.7249881 C59.1812622,19.7249881 58.878382,19.6669658 58.6003961,19.5516288 C58.3231017,19.4369994 58.0824572,19.2763767 57.8784626,19.072591 C57.6744679,18.8688054 57.5147298,18.6268099 57.3978651,18.3473123 C57.2803088,18.0678146 57.2222222,17.7677968 57.2222222,17.4486742" id="Fill-7"></path>
                        <path d="M72.8549541,11.715193 L78.2117126,11.715193 L76.4084757,6.52166736 C76.2918377,6.1922273 76.1544483,5.80326656 75.9977384,5.35616934 C75.8410285,4.90976422 75.6857498,4.42598565 75.5333333,3.90552573 C75.3895037,4.43429086 75.2413807,4.92429834 75.0889642,5.37624027 C74.9365478,5.8274901 74.7934337,6.21783504 74.6589066,6.5472751 L72.8549541,11.715193 Z M85.4518519,18.9663348 L81.9262375,18.9663348 C81.5312427,18.9663348 81.2063739,18.8770537 80.9501997,18.6991838 C80.6947412,18.5213138 80.5172798,18.2936126 80.4185311,18.0160801 L79.2614541,14.7092217 L71.8052126,14.7092217 L70.6481356,18.0160801 C70.5579737,18.2590076 70.3833746,18.4777115 70.1229071,18.673576 C69.8624395,18.8687485 69.5440108,18.9663348 69.1676208,18.9663348 L65.6148148,18.9663348 L73.2048679,0 L77.8617988,0 L85.4518519,18.9663348 Z" id="Fill-9"></path>
                        <path d="M94.607051,15.3228597 C95.2151014,15.3228597 95.7582836,15.2256456 96.2365976,15.0325866 C96.7141987,14.8395276 97.1183776,14.5629466 97.449847,14.2021591 C97.7798908,13.8420561 98.0329481,13.4018542 98.2075933,12.8829226 C98.3815257,12.3633064 98.4684919,11.7731757 98.4684919,11.1125305 L98.4684919,0 L103,0 L103,11.1125305 C103,12.2626692 102.806108,13.3183322 102.416899,14.2802042 C102.028402,15.2413915 101.471676,16.0697652 100.747433,16.7646407 C100.023903,17.4602008 99.143549,18.0010398 98.1063704,18.3871578 C97.0699046,18.7732758 95.9029896,18.9663348 94.607051,18.9663348 C93.3025583,18.9663348 92.1313663,18.7732758 91.0941877,18.3871578 C90.0577219,18.0010398 89.1773676,17.4602008 88.4531246,16.7646407 C87.7295946,16.0697652 87.175007,15.2413915 86.7907875,14.2802042 C86.4065681,13.3183322 86.2148148,12.2626692 86.2148148,11.1125305 L86.2148148,0 L90.746323,0 L90.746323,11.099523 C90.746323,11.7601682 90.8332891,12.3502988 91.0072215,12.8699151 C91.1818667,13.3895313 91.4342112,13.8311024 91.7649678,14.1959976 C92.0957244,14.5608928 92.4999033,14.8395276 92.9782172,15.0325866 C93.4565312,15.2256456 93.9990006,15.3228597 94.607051,15.3228597" id="Fill-11"></path>
                    </g>
                    <g id="Group-16" transform="translate(66.000000, 25.000000)">
                        <path d="M0,4 L5.85799226,4 L37,4 L37,1.77635684e-15 L0,1.77635684e-15 L0,4 Z" id="Fill-16" fill="#1B8197" transform="translate(18.500000, 2.000000) scale(1, -1) translate(-18.500000, -2.000000) "></path>
                        <polygon id="Fill-18" fill="#BBE6ED" transform="translate(30.942478, 2.000000) scale(1, -1) translate(-30.942478, -2.000000) " points="24.8849558 4 37 4 37 1.77635684e-15 24.8849558 1.77635684e-15"></polygon>
                        <polygon id="Fill-19" fill="#00A1BB" transform="translate(18.336283, 2.000000) scale(1, -1) translate(-18.336283, -2.000000) " points="12.1150442 4 24.5575221 4 24.5575221 1.77635684e-15 12.1150442 1.77635684e-15"></polygon>
                    </g>
                </g>
            </g>
        </g>
    </g>
</svg>
